<mxfile host="app.diagrams.net" agent="Mozilla/5.0 (Windows NT 10.0; Win64; x64) AppleWebKit/537.36 (KHTML, like Gecko) Chrome/128.0.0.0 Safari/537.36" version="24.7.12">
  <diagram name="Página-1" id="e0W5FFudfDkD1n7ttD1k">
    <mxGraphModel dx="1034" dy="460" grid="1" gridSize="10" guides="1" tooltips="1" connect="1" arrows="1" fold="1" page="1" pageScale="1" pageWidth="827" pageHeight="1169" math="0" shadow="0">
      <root>
        <mxCell id="0" />
        <mxCell id="1" parent="0" />
        <mxCell id="3Sb3ryOfrzizplaeh4FI-1" value="PREMIER LEAGUE" style="rounded=0;whiteSpace=wrap;html=1;" parent="1" vertex="1">
          <mxGeometry x="323" y="500" width="120" height="60" as="geometry" />
        </mxCell>
        <mxCell id="3Sb3ryOfrzizplaeh4FI-2" value="BUNDELISGA" style="rounded=0;whiteSpace=wrap;html=1;" parent="1" vertex="1">
          <mxGeometry x="593" y="500" width="120" height="60" as="geometry" />
        </mxCell>
        <mxCell id="3Sb3ryOfrzizplaeh4FI-3" value="LA LIGA" style="rounded=0;whiteSpace=wrap;html=1;" parent="1" vertex="1">
          <mxGeometry x="183" y="500" width="120" height="60" as="geometry" />
        </mxCell>
        <mxCell id="3Sb3ryOfrzizplaeh4FI-4" value="LIGAS" style="rounded=0;whiteSpace=wrap;html=1;" parent="1" vertex="1">
          <mxGeometry x="350" y="120" width="120" height="60" as="geometry" />
        </mxCell>
        <mxCell id="3Sb3ryOfrzizplaeh4FI-7" value="SERIE A ITALIA" style="rounded=0;whiteSpace=wrap;html=1;" parent="1" vertex="1">
          <mxGeometry x="463" y="500" width="120" height="60" as="geometry" />
        </mxCell>
        <mxCell id="3Sb3ryOfrzizplaeh4FI-8" value="LIGUE 1 FRANCIA" style="rounded=0;whiteSpace=wrap;html=1;" parent="1" vertex="1">
          <mxGeometry x="730" y="500" width="120" height="60" as="geometry" />
        </mxCell>
        <mxCell id="3Sb3ryOfrzizplaeh4FI-9" value="LIGA MX" style="rounded=0;whiteSpace=wrap;html=1;" parent="1" vertex="1">
          <mxGeometry x="43" y="500" width="120" height="60" as="geometry" />
        </mxCell>
        <mxCell id="3Sb3ryOfrzizplaeh4FI-10" value="EQUIPOS" style="rounded=0;whiteSpace=wrap;html=1;" parent="1" vertex="1">
          <mxGeometry x="44" y="600" width="120" height="60" as="geometry" />
        </mxCell>
        <mxCell id="3Sb3ryOfrzizplaeh4FI-11" value="PARTIDOS" style="rounded=0;whiteSpace=wrap;html=1;" parent="1" vertex="1">
          <mxGeometry x="44" y="765" width="120" height="60" as="geometry" />
        </mxCell>
        <mxCell id="3Sb3ryOfrzizplaeh4FI-12" value="INFORMACIÓN DEL EQUIPO" style="rounded=0;whiteSpace=wrap;html=1;" parent="1" vertex="1">
          <mxGeometry x="44" y="680" width="120" height="60" as="geometry" />
        </mxCell>
        <mxCell id="3Sb3ryOfrzizplaeh4FI-13" value="ESTADISTICAS" style="rounded=0;whiteSpace=wrap;html=1;" parent="1" vertex="1">
          <mxGeometry x="44" y="850" width="120" height="60" as="geometry" />
        </mxCell>
        <mxCell id="3Sb3ryOfrzizplaeh4FI-14" value="" style="endArrow=classic;startArrow=classic;html=1;rounded=0;entryX=0.5;entryY=1;entryDx=0;entryDy=0;" parent="1" target="3Sb3ryOfrzizplaeh4FI-4" edge="1">
          <mxGeometry width="50" height="50" relative="1" as="geometry">
            <mxPoint x="410" y="450" as="sourcePoint" />
            <mxPoint x="414" y="180" as="targetPoint" />
          </mxGeometry>
        </mxCell>
        <mxCell id="3Sb3ryOfrzizplaeh4FI-16" value="" style="endArrow=classic;html=1;rounded=0;exitX=1;exitY=0.5;exitDx=0;exitDy=0;entryX=0.5;entryY=0;entryDx=0;entryDy=0;" parent="1" edge="1">
          <mxGeometry width="50" height="50" relative="1" as="geometry">
            <mxPoint x="493" y="450" as="sourcePoint" />
            <mxPoint x="783" y="500" as="targetPoint" />
            <Array as="points">
              <mxPoint x="783" y="450" />
            </Array>
          </mxGeometry>
        </mxCell>
        <mxCell id="3Sb3ryOfrzizplaeh4FI-17" value="" style="endArrow=classic;html=1;rounded=0;exitX=1;exitY=0.5;exitDx=0;exitDy=0;entryX=0.5;entryY=0;entryDx=0;entryDy=0;" parent="1" target="3Sb3ryOfrzizplaeh4FI-2" edge="1">
          <mxGeometry width="50" height="50" relative="1" as="geometry">
            <mxPoint x="493" y="450" as="sourcePoint" />
            <mxPoint x="783" y="500" as="targetPoint" />
            <Array as="points">
              <mxPoint x="653" y="450" />
            </Array>
          </mxGeometry>
        </mxCell>
        <mxCell id="3Sb3ryOfrzizplaeh4FI-18" value="" style="endArrow=classic;html=1;rounded=0;entryX=0.578;entryY=-0.033;entryDx=0;entryDy=0;entryPerimeter=0;" parent="1" target="3Sb3ryOfrzizplaeh4FI-7" edge="1">
          <mxGeometry width="50" height="50" relative="1" as="geometry">
            <mxPoint x="533" y="450" as="sourcePoint" />
            <mxPoint x="533" y="490" as="targetPoint" />
          </mxGeometry>
        </mxCell>
        <mxCell id="3Sb3ryOfrzizplaeh4FI-20" value="" style="endArrow=classic;html=1;rounded=0;entryX=0.5;entryY=0;entryDx=0;entryDy=0;" parent="1" target="3Sb3ryOfrzizplaeh4FI-9" edge="1">
          <mxGeometry width="50" height="50" relative="1" as="geometry">
            <mxPoint x="493" y="450" as="sourcePoint" />
            <mxPoint x="393" y="490" as="targetPoint" />
            <Array as="points">
              <mxPoint x="103" y="450" />
            </Array>
          </mxGeometry>
        </mxCell>
        <mxCell id="3Sb3ryOfrzizplaeh4FI-21" value="" style="endArrow=classic;html=1;rounded=0;entryX=0.578;entryY=-0.033;entryDx=0;entryDy=0;entryPerimeter=0;" parent="1" edge="1">
          <mxGeometry width="50" height="50" relative="1" as="geometry">
            <mxPoint x="243.5" y="452" as="sourcePoint" />
            <mxPoint x="242.5" y="500" as="targetPoint" />
          </mxGeometry>
        </mxCell>
        <mxCell id="3Sb3ryOfrzizplaeh4FI-22" value="" style="endArrow=classic;html=1;rounded=0;entryX=0.578;entryY=-0.033;entryDx=0;entryDy=0;entryPerimeter=0;" parent="1" edge="1">
          <mxGeometry width="50" height="50" relative="1" as="geometry">
            <mxPoint x="354" y="452" as="sourcePoint" />
            <mxPoint x="353" y="500" as="targetPoint" />
          </mxGeometry>
        </mxCell>
        <mxCell id="3Sb3ryOfrzizplaeh4FI-23" value="" style="endArrow=none;html=1;rounded=0;" parent="1" edge="1">
          <mxGeometry width="50" height="50" relative="1" as="geometry">
            <mxPoint x="103" y="590" as="sourcePoint" />
            <mxPoint x="783" y="590" as="targetPoint" />
          </mxGeometry>
        </mxCell>
        <mxCell id="3Sb3ryOfrzizplaeh4FI-24" value="" style="endArrow=classic;html=1;rounded=0;" parent="1" edge="1">
          <mxGeometry width="50" height="50" relative="1" as="geometry">
            <mxPoint x="103.41000000000003" y="560" as="sourcePoint" />
            <mxPoint x="103" y="590" as="targetPoint" />
          </mxGeometry>
        </mxCell>
        <mxCell id="3Sb3ryOfrzizplaeh4FI-25" value="" style="endArrow=classic;html=1;rounded=0;" parent="1" edge="1">
          <mxGeometry width="50" height="50" relative="1" as="geometry">
            <mxPoint x="383.17" y="560" as="sourcePoint" />
            <mxPoint x="382.76" y="590" as="targetPoint" />
          </mxGeometry>
        </mxCell>
        <mxCell id="3Sb3ryOfrzizplaeh4FI-26" value="" style="endArrow=classic;html=1;rounded=0;" parent="1" edge="1">
          <mxGeometry width="50" height="50" relative="1" as="geometry">
            <mxPoint x="243.17000000000002" y="560" as="sourcePoint" />
            <mxPoint x="242.76" y="590" as="targetPoint" />
          </mxGeometry>
        </mxCell>
        <mxCell id="3Sb3ryOfrzizplaeh4FI-27" value="" style="endArrow=classic;html=1;rounded=0;fontStyle=1" parent="1" edge="1">
          <mxGeometry width="50" height="50" relative="1" as="geometry">
            <mxPoint x="533.4100000000001" y="560" as="sourcePoint" />
            <mxPoint x="533" y="590" as="targetPoint" />
          </mxGeometry>
        </mxCell>
        <mxCell id="3Sb3ryOfrzizplaeh4FI-28" value="" style="endArrow=classic;html=1;rounded=0;fontStyle=1" parent="1" edge="1">
          <mxGeometry width="50" height="50" relative="1" as="geometry">
            <mxPoint x="653.07" y="560" as="sourcePoint" />
            <mxPoint x="652.66" y="590" as="targetPoint" />
          </mxGeometry>
        </mxCell>
        <mxCell id="3Sb3ryOfrzizplaeh4FI-29" value="" style="endArrow=classic;html=1;rounded=0;fontStyle=1" parent="1" edge="1">
          <mxGeometry width="50" height="50" relative="1" as="geometry">
            <mxPoint x="783.07" y="560" as="sourcePoint" />
            <mxPoint x="782.66" y="590" as="targetPoint" />
          </mxGeometry>
        </mxCell>
        <mxCell id="3Sb3ryOfrzizplaeh4FI-30" value="" style="endArrow=classic;html=1;rounded=0;fontStyle=1" parent="1" edge="1">
          <mxGeometry width="50" height="50" relative="1" as="geometry">
            <mxPoint x="102.69" y="590" as="sourcePoint" />
            <mxPoint x="102.57" y="600" as="targetPoint" />
          </mxGeometry>
        </mxCell>
        <mxCell id="3Sb3ryOfrzizplaeh4FI-31" value="" style="endArrow=classic;html=1;rounded=0;fontStyle=1;entryX=0.5;entryY=0;entryDx=0;entryDy=0;exitX=0.5;exitY=1;exitDx=0;exitDy=0;" parent="1" source="3Sb3ryOfrzizplaeh4FI-10" target="3Sb3ryOfrzizplaeh4FI-12" edge="1">
          <mxGeometry width="50" height="50" relative="1" as="geometry">
            <mxPoint x="103.12" y="660" as="sourcePoint" />
            <mxPoint x="103" y="670" as="targetPoint" />
          </mxGeometry>
        </mxCell>
        <mxCell id="3Sb3ryOfrzizplaeh4FI-32" value="" style="endArrow=classic;html=1;rounded=0;fontStyle=1;exitX=0.5;exitY=1;exitDx=0;exitDy=0;entryX=0.5;entryY=0;entryDx=0;entryDy=0;" parent="1" target="3Sb3ryOfrzizplaeh4FI-11" edge="1">
          <mxGeometry width="50" height="50" relative="1" as="geometry">
            <mxPoint x="103.82999999999998" y="740" as="sourcePoint" />
            <mxPoint x="104" y="760" as="targetPoint" />
          </mxGeometry>
        </mxCell>
        <mxCell id="3Sb3ryOfrzizplaeh4FI-33" value="" style="endArrow=classic;html=1;rounded=0;fontStyle=1;exitX=0.5;exitY=1;exitDx=0;exitDy=0;entryX=0.5;entryY=0;entryDx=0;entryDy=0;" parent="1" edge="1">
          <mxGeometry width="50" height="50" relative="1" as="geometry">
            <mxPoint x="103" y="825" as="sourcePoint" />
            <mxPoint x="103.17000000000002" y="850" as="targetPoint" />
          </mxGeometry>
        </mxCell>
        <mxCell id="ni1MEceivpjO8g6UFR9i-1" value="LOGIN" style="rounded=0;whiteSpace=wrap;html=1;" parent="1" vertex="1">
          <mxGeometry x="560" y="120" width="120" height="60" as="geometry" />
        </mxCell>
        <mxCell id="ni1MEceivpjO8g6UFR9i-2" value="" style="endArrow=classic;html=1;rounded=0;entryX=0;entryY=0.5;entryDx=0;entryDy=0;" parent="1" target="ni1MEceivpjO8g6UFR9i-1" edge="1">
          <mxGeometry width="50" height="50" relative="1" as="geometry">
            <mxPoint x="470" y="150" as="sourcePoint" />
            <mxPoint x="470" y="200" as="targetPoint" />
          </mxGeometry>
        </mxCell>
        <mxCell id="ni1MEceivpjO8g6UFR9i-3" value="REGISTRO" style="rounded=0;whiteSpace=wrap;html=1;" parent="1" vertex="1">
          <mxGeometry x="560" y="30" width="120" height="60" as="geometry" />
        </mxCell>
        <mxCell id="ni1MEceivpjO8g6UFR9i-4" value="" style="endArrow=classic;html=1;rounded=0;entryX=0;entryY=0.5;entryDx=0;entryDy=0;" parent="1" edge="1">
          <mxGeometry width="50" height="50" relative="1" as="geometry">
            <mxPoint x="470" y="150" as="sourcePoint" />
            <mxPoint x="564" y="59.5" as="targetPoint" />
            <Array as="points">
              <mxPoint x="470" y="60" />
            </Array>
          </mxGeometry>
        </mxCell>
        <mxCell id="ni1MEceivpjO8g6UFR9i-5" value="JUGADORES" style="rounded=0;whiteSpace=wrap;html=1;" parent="1" vertex="1">
          <mxGeometry x="43" y="940" width="120" height="60" as="geometry" />
        </mxCell>
        <mxCell id="ni1MEceivpjO8g6UFR9i-6" value="" style="endArrow=classic;html=1;rounded=0;fontStyle=1;exitX=0.5;exitY=1;exitDx=0;exitDy=0;entryX=0.5;entryY=0;entryDx=0;entryDy=0;" parent="1" target="ni1MEceivpjO8g6UFR9i-5" edge="1">
          <mxGeometry width="50" height="50" relative="1" as="geometry">
            <mxPoint x="103" y="910" as="sourcePoint" />
            <mxPoint x="103.17000000000002" y="935" as="targetPoint" />
          </mxGeometry>
        </mxCell>
        <mxCell id="07Km9LBTmwG8m_-8uPqj-1" value="ADMINISTRADOR" style="rounded=0;whiteSpace=wrap;html=1;" parent="1" vertex="1">
          <mxGeometry x="190" y="120" width="120" height="60" as="geometry" />
        </mxCell>
        <mxCell id="07Km9LBTmwG8m_-8uPqj-3" value="" style="endArrow=classic;html=1;rounded=0;entryX=1;entryY=0.5;entryDx=0;entryDy=0;exitX=0;exitY=0.5;exitDx=0;exitDy=0;" parent="1" source="3Sb3ryOfrzizplaeh4FI-4" target="07Km9LBTmwG8m_-8uPqj-1" edge="1">
          <mxGeometry width="50" height="50" relative="1" as="geometry">
            <mxPoint x="390" y="170" as="sourcePoint" />
            <mxPoint x="440" y="120" as="targetPoint" />
          </mxGeometry>
        </mxCell>
        <mxCell id="07Km9LBTmwG8m_-8uPqj-4" value="CREAR TORNEOS" style="rounded=0;whiteSpace=wrap;html=1;" parent="1" vertex="1">
          <mxGeometry x="20" y="20" width="120" height="60" as="geometry" />
        </mxCell>
        <mxCell id="07Km9LBTmwG8m_-8uPqj-5" value="REGISTRAR ARBRITOS" style="rounded=0;whiteSpace=wrap;html=1;" parent="1" vertex="1">
          <mxGeometry x="20" y="90" width="120" height="60" as="geometry" />
        </mxCell>
        <mxCell id="07Km9LBTmwG8m_-8uPqj-6" value="REGISTRAR EQUIPOS" style="rounded=0;whiteSpace=wrap;html=1;" parent="1" vertex="1">
          <mxGeometry x="20" y="160" width="120" height="60" as="geometry" />
        </mxCell>
        <mxCell id="07Km9LBTmwG8m_-8uPqj-7" value="" style="endArrow=classic;html=1;rounded=0;entryX=1;entryY=0.5;entryDx=0;entryDy=0;exitX=0;exitY=0.25;exitDx=0;exitDy=0;" parent="1" source="07Km9LBTmwG8m_-8uPqj-1" target="07Km9LBTmwG8m_-8uPqj-4" edge="1">
          <mxGeometry width="50" height="50" relative="1" as="geometry">
            <mxPoint x="400" y="240" as="sourcePoint" />
            <mxPoint x="450" y="190" as="targetPoint" />
            <Array as="points">
              <mxPoint x="180" y="50" />
            </Array>
          </mxGeometry>
        </mxCell>
        <mxCell id="07Km9LBTmwG8m_-8uPqj-8" value="" style="endArrow=classic;html=1;rounded=0;entryX=1;entryY=0.5;entryDx=0;entryDy=0;exitX=0;exitY=0.25;exitDx=0;exitDy=0;" parent="1" source="07Km9LBTmwG8m_-8uPqj-1" target="07Km9LBTmwG8m_-8uPqj-5" edge="1">
          <mxGeometry width="50" height="50" relative="1" as="geometry">
            <mxPoint x="400" y="240" as="sourcePoint" />
            <mxPoint x="450" y="190" as="targetPoint" />
            <Array as="points">
              <mxPoint x="180" y="120" />
            </Array>
          </mxGeometry>
        </mxCell>
        <mxCell id="07Km9LBTmwG8m_-8uPqj-9" value="" style="endArrow=classic;html=1;rounded=0;entryX=1;entryY=0.5;entryDx=0;entryDy=0;exitX=0;exitY=0.5;exitDx=0;exitDy=0;" parent="1" source="07Km9LBTmwG8m_-8uPqj-1" target="07Km9LBTmwG8m_-8uPqj-6" edge="1">
          <mxGeometry width="50" height="50" relative="1" as="geometry">
            <mxPoint x="400" y="240" as="sourcePoint" />
            <mxPoint x="450" y="190" as="targetPoint" />
            <Array as="points">
              <mxPoint x="180" y="190" />
            </Array>
          </mxGeometry>
        </mxCell>
        <mxCell id="07Km9LBTmwG8m_-8uPqj-10" value="ARBITRO" style="rounded=0;whiteSpace=wrap;html=1;" parent="1" vertex="1">
          <mxGeometry x="210" y="230" width="120" height="60" as="geometry" />
        </mxCell>
        <mxCell id="07Km9LBTmwG8m_-8uPqj-11" value="" style="endArrow=classic;html=1;rounded=0;entryX=1;entryY=0.5;entryDx=0;entryDy=0;exitX=0.25;exitY=1;exitDx=0;exitDy=0;" parent="1" source="3Sb3ryOfrzizplaeh4FI-4" target="07Km9LBTmwG8m_-8uPqj-10" edge="1">
          <mxGeometry width="50" height="50" relative="1" as="geometry">
            <mxPoint x="400" y="240" as="sourcePoint" />
            <mxPoint x="450" y="190" as="targetPoint" />
            <Array as="points">
              <mxPoint x="380" y="260" />
            </Array>
          </mxGeometry>
        </mxCell>
        <mxCell id="07Km9LBTmwG8m_-8uPqj-12" value="TARJETAS" style="rounded=0;whiteSpace=wrap;html=1;" parent="1" vertex="1">
          <mxGeometry x="40" y="240" width="120" height="60" as="geometry" />
        </mxCell>
        <mxCell id="07Km9LBTmwG8m_-8uPqj-13" value="PUNTOS" style="rounded=0;whiteSpace=wrap;html=1;" parent="1" vertex="1">
          <mxGeometry x="40" y="310" width="120" height="60" as="geometry" />
        </mxCell>
        <mxCell id="07Km9LBTmwG8m_-8uPqj-14" value="PUNTOS" style="rounded=0;whiteSpace=wrap;html=1;" parent="1" vertex="1">
          <mxGeometry x="210" y="310" width="120" height="60" as="geometry" />
        </mxCell>
        <mxCell id="07Km9LBTmwG8m_-8uPqj-15" value="" style="endArrow=classic;html=1;rounded=0;entryX=0.5;entryY=0;entryDx=0;entryDy=0;exitX=0.5;exitY=1;exitDx=0;exitDy=0;" parent="1" source="07Km9LBTmwG8m_-8uPqj-10" target="07Km9LBTmwG8m_-8uPqj-14" edge="1">
          <mxGeometry width="50" height="50" relative="1" as="geometry">
            <mxPoint x="400" y="240" as="sourcePoint" />
            <mxPoint x="450" y="190" as="targetPoint" />
          </mxGeometry>
        </mxCell>
        <mxCell id="07Km9LBTmwG8m_-8uPqj-16" value="" style="endArrow=classic;html=1;rounded=0;entryX=1;entryY=0.5;entryDx=0;entryDy=0;exitX=0;exitY=0.5;exitDx=0;exitDy=0;" parent="1" source="07Km9LBTmwG8m_-8uPqj-10" target="07Km9LBTmwG8m_-8uPqj-13" edge="1">
          <mxGeometry width="50" height="50" relative="1" as="geometry">
            <mxPoint x="280" y="300" as="sourcePoint" />
            <mxPoint x="280" y="320" as="targetPoint" />
            <Array as="points">
              <mxPoint x="190" y="260" />
              <mxPoint x="190" y="340" />
            </Array>
          </mxGeometry>
        </mxCell>
        <mxCell id="07Km9LBTmwG8m_-8uPqj-17" value="" style="endArrow=classic;html=1;rounded=0;entryX=1;entryY=0.5;entryDx=0;entryDy=0;exitX=0.001;exitY=0.661;exitDx=0;exitDy=0;exitPerimeter=0;" parent="1" source="07Km9LBTmwG8m_-8uPqj-10" target="07Km9LBTmwG8m_-8uPqj-12" edge="1">
          <mxGeometry width="50" height="50" relative="1" as="geometry">
            <mxPoint x="400" y="240" as="sourcePoint" />
            <mxPoint x="450" y="190" as="targetPoint" />
          </mxGeometry>
        </mxCell>
        <mxCell id="07Km9LBTmwG8m_-8uPqj-18" value="DT" style="rounded=0;whiteSpace=wrap;html=1;" parent="1" vertex="1">
          <mxGeometry x="430" y="230" width="120" height="60" as="geometry" />
        </mxCell>
        <mxCell id="07Km9LBTmwG8m_-8uPqj-19" value="JUGADORES" style="rounded=0;whiteSpace=wrap;html=1;" parent="1" vertex="1">
          <mxGeometry x="580" y="200" width="120" height="60" as="geometry" />
        </mxCell>
        <mxCell id="07Km9LBTmwG8m_-8uPqj-20" value="PLANTILLA" style="rounded=0;whiteSpace=wrap;html=1;" parent="1" vertex="1">
          <mxGeometry x="580" y="280" width="120" height="60" as="geometry" />
        </mxCell>
        <mxCell id="07Km9LBTmwG8m_-8uPqj-21" value="" style="endArrow=classic;html=1;rounded=0;entryX=0;entryY=0.5;entryDx=0;entryDy=0;exitX=1;exitY=0;exitDx=0;exitDy=0;" parent="1" source="07Km9LBTmwG8m_-8uPqj-18" target="07Km9LBTmwG8m_-8uPqj-19" edge="1">
          <mxGeometry width="50" height="50" relative="1" as="geometry">
            <mxPoint x="420" y="290" as="sourcePoint" />
            <mxPoint x="470" y="240" as="targetPoint" />
          </mxGeometry>
        </mxCell>
        <mxCell id="07Km9LBTmwG8m_-8uPqj-22" value="" style="endArrow=classic;html=1;rounded=0;entryX=0;entryY=0.5;entryDx=0;entryDy=0;exitX=0.5;exitY=1;exitDx=0;exitDy=0;" parent="1" source="07Km9LBTmwG8m_-8uPqj-18" target="07Km9LBTmwG8m_-8uPqj-20" edge="1">
          <mxGeometry width="50" height="50" relative="1" as="geometry">
            <mxPoint x="420" y="290" as="sourcePoint" />
            <mxPoint x="470" y="240" as="targetPoint" />
            <Array as="points">
              <mxPoint x="490" y="310" />
            </Array>
          </mxGeometry>
        </mxCell>
        <mxCell id="07Km9LBTmwG8m_-8uPqj-23" value="" style="endArrow=classic;html=1;rounded=0;entryX=0.5;entryY=0;entryDx=0;entryDy=0;exitX=0.75;exitY=1;exitDx=0;exitDy=0;" parent="1" source="3Sb3ryOfrzizplaeh4FI-4" target="07Km9LBTmwG8m_-8uPqj-18" edge="1">
          <mxGeometry width="50" height="50" relative="1" as="geometry">
            <mxPoint x="420" y="290" as="sourcePoint" />
            <mxPoint x="470" y="240" as="targetPoint" />
            <Array as="points">
              <mxPoint x="490" y="180" />
            </Array>
          </mxGeometry>
        </mxCell>
      </root>
    </mxGraphModel>
  </diagram>
</mxfile>
